<?xml version="1.0" encoding="UTF-8" standalone="no"?>
<!DOCTYPE svg PUBLIC "-//W3C//DTD SVG 1.1//EN"
 "http://www.w3.org/Graphics/SVG/1.1/DTD/svg11.dtd">
<!-- Generated by graphviz version 2.42.0 (0)
 -->
<!-- Title: BST Pages: 1 -->
<svg width="208pt" height="191pt"
 viewBox="0.00 0.00 208.50 191.00" xmlns="http://www.w3.org/2000/svg" xmlns:xlink="http://www.w3.org/1999/xlink">
<g id="graph0" class="graph" transform="scale(1 1) rotate(0) translate(4 187)">
<title>BST</title>
<polygon fill="black" stroke="transparent" points="-4,4 -4,-187 204.5,-187 204.5,4 -4,4"/>
<!-- 0x5635f1d03f00 -->
<g id="node1" class="node">
<title>0x5635f1d03f00</title>
<ellipse fill="#a2cd5a" stroke="white" cx="18" cy="-19.5" rx="18" ry="18"/>
<text text-anchor="middle" x="18" y="-15.8" font-family="Times,serif" font-size="14.00">1</text>
</g>
<!-- 0x5635f1d03f20 -->
<g id="node2" class="node">
<title>0x5635f1d03f20</title>
<ellipse fill="#a2cd5a" stroke="white" cx="72" cy="-19.5" rx="18" ry="18"/>
<text text-anchor="middle" x="72" y="-15.8" font-family="Times,serif" font-size="14.00">3</text>
</g>
<!-- 0x5635f1d03ee0 -->
<g id="node3" class="node">
<title>0x5635f1d03ee0</title>
<ellipse fill="#a2cd5a" stroke="white" cx="72" cy="-93" rx="18" ry="18"/>
<text text-anchor="middle" x="72" y="-89.3" font-family="Times,serif" font-size="14.00">2</text>
</g>
<!-- 0x5635f1d03ee0&#45;&gt;0x5635f1d03f00 -->
<g id="edge1" class="edge">
<title>0x5635f1d03ee0&#45;&gt;0x5635f1d03f00</title>
<path fill="none" stroke="white" stroke-dasharray="5,2" d="M61.59,-78.21C53.89,-68.02 43.26,-53.95 34.43,-42.25"/>
<polygon fill="white" stroke="white" points="37.2,-40.11 28.38,-34.24 31.61,-44.33 37.2,-40.11"/>
</g>
<!-- 0x5635f1d03ee0&#45;&gt;0x5635f1d03f20 -->
<g id="edge2" class="edge">
<title>0x5635f1d03ee0&#45;&gt;0x5635f1d03f20</title>
<path fill="none" stroke="white" d="M72,-74.69C72,-66.61 72,-56.8 72,-47.76"/>
<polygon fill="white" stroke="white" points="75.5,-47.65 72,-37.65 68.5,-47.65 75.5,-47.65"/>
</g>
<!-- 0x5635f1d03f60 -->
<g id="node4" class="node">
<title>0x5635f1d03f60</title>
<ellipse fill="#a2cd5a" stroke="white" cx="126" cy="-19.5" rx="18" ry="18"/>
<text text-anchor="middle" x="126" y="-15.8" font-family="Times,serif" font-size="14.00">7</text>
</g>
<!-- 0x5635f1d03f80 -->
<g id="node5" class="node">
<title>0x5635f1d03f80</title>
<ellipse fill="#a2cd5a" stroke="white" cx="181" cy="-19.5" rx="19.5" ry="19.5"/>
<text text-anchor="middle" x="181" y="-15.8" font-family="Times,serif" font-size="14.00">13</text>
</g>
<!-- 0x5635f1d03f40 -->
<g id="node6" class="node">
<title>0x5635f1d03f40</title>
<ellipse fill="#a2cd5a" stroke="white" cx="126" cy="-93" rx="18" ry="18"/>
<text text-anchor="middle" x="126" y="-89.3" font-family="Times,serif" font-size="14.00">9</text>
</g>
<!-- 0x5635f1d03f40&#45;&gt;0x5635f1d03f60 -->
<g id="edge3" class="edge">
<title>0x5635f1d03f40&#45;&gt;0x5635f1d03f60</title>
<path fill="none" stroke="white" stroke-dasharray="5,2" d="M126,-74.69C126,-66.61 126,-56.8 126,-47.76"/>
<polygon fill="white" stroke="white" points="129.5,-47.65 126,-37.65 122.5,-47.65 129.5,-47.65"/>
</g>
<!-- 0x5635f1d03f40&#45;&gt;0x5635f1d03f80 -->
<g id="edge4" class="edge">
<title>0x5635f1d03f40&#45;&gt;0x5635f1d03f80</title>
<path fill="none" stroke="white" d="M136.6,-78.21C144.12,-68.45 154.38,-55.11 163.14,-43.72"/>
<polygon fill="white" stroke="white" points="166.16,-45.54 169.48,-35.48 160.61,-41.27 166.16,-45.54"/>
</g>
<!-- 0x5635f1d03ec0 -->
<g id="node7" class="node">
<title>0x5635f1d03ec0</title>
<ellipse fill="#a2cd5a" stroke="white" cx="99" cy="-165" rx="18" ry="18"/>
<text text-anchor="middle" x="99" y="-161.3" font-family="Times,serif" font-size="14.00">5</text>
</g>
<!-- 0x5635f1d03ec0&#45;&gt;0x5635f1d03ee0 -->
<g id="edge5" class="edge">
<title>0x5635f1d03ec0&#45;&gt;0x5635f1d03ee0</title>
<path fill="none" stroke="white" stroke-dasharray="5,2" d="M92.74,-147.76C89.5,-139.37 85.47,-128.93 81.83,-119.49"/>
<polygon fill="white" stroke="white" points="85.09,-118.21 78.23,-110.14 78.56,-120.73 85.09,-118.21"/>
</g>
<!-- 0x5635f1d03ec0&#45;&gt;0x5635f1d03f40 -->
<g id="edge6" class="edge">
<title>0x5635f1d03ec0&#45;&gt;0x5635f1d03f40</title>
<path fill="none" stroke="white" d="M105.26,-147.76C108.5,-139.37 112.53,-128.93 116.17,-119.49"/>
<polygon fill="white" stroke="white" points="119.44,-120.73 119.77,-110.14 112.91,-118.21 119.44,-120.73"/>
</g>
</g>
</svg>
